<svg width="30" height="30" viewBox="0 0 30 30" fill="none" xmlns="http://www.w3.org/2000/svg">
<g id="local_fire_department">
<mask id="mask0_27_620" style="mask-type:alpha" maskUnits="userSpaceOnUse" x="0" y="0" width="30" height="30">
<rect id="Bounding box" width="30" height="30" fill="#D9D9D9"/>
</mask>
<g mask="url(#mask0_27_620)">
<path id="local_fire_department_2" d="M7.5 17.5C7.5 18.5833 7.71875 19.6094 8.15625 20.5781C8.59375 21.5469 9.21875 22.3958 10.0312 23.125C10.0104 23.0208 10 22.9271 10 22.8438V22.5625C10 21.8958 10.125 21.2708 10.375 20.6875C10.625 20.1042 10.9896 19.5729 11.4688 19.0938L15 15.625L18.5312 19.0938C19.0104 19.5729 19.375 20.1042 19.625 20.6875C19.875 21.2708 20 21.8958 20 22.5625V22.8438C20 22.9271 19.9896 23.0208 19.9688 23.125C20.7813 22.3958 21.4062 21.5469 21.8438 20.5781C22.2812 19.6094 22.5 18.5833 22.5 17.5C22.5 16.4583 22.3073 15.474 21.9219 14.5469C21.5365 13.6198 20.9792 12.7917 20.25 12.0625C19.8333 12.3333 19.3958 12.5365 18.9375 12.6719C18.4792 12.8073 18.0104 12.875 17.5313 12.875C16.2396 12.875 15.1198 12.4479 14.1719 11.5938C13.224 10.7396 12.6771 9.6875 12.5312 8.4375C11.7188 9.125 11 9.83854 10.375 10.5781C9.75 11.3177 9.22396 12.0677 8.79688 12.8281C8.36979 13.5885 8.04688 14.3646 7.82812 15.1562C7.60938 15.9479 7.5 16.7292 7.5 17.5ZM15 19.125L13.2188 20.875C12.9896 21.1042 12.8125 21.3646 12.6875 21.6562C12.5625 21.9479 12.5 22.25 12.5 22.5625C12.5 23.2292 12.7448 23.8021 13.2344 24.2813C13.724 24.7604 14.3125 25 15 25C15.6875 25 16.276 24.7604 16.7656 24.2813C17.2552 23.8021 17.5 23.2292 17.5 22.5625C17.5 22.2292 17.4375 21.9219 17.3125 21.6406C17.1875 21.3594 17.0104 21.1042 16.7812 20.875L15 19.125ZM15 3.75V7.875C15 8.58333 15.2448 9.17708 15.7344 9.65625C16.224 10.1354 16.8229 10.375 17.5313 10.375C17.9063 10.375 18.2552 10.2969 18.5781 10.1406C18.901 9.98438 19.1875 9.75 19.4375 9.4375L20 8.75C21.5417 9.625 22.7604 10.8438 23.6562 12.4062C24.5521 13.9688 25 15.6667 25 17.5C25 20.2917 24.0312 22.6563 22.0938 24.5938C20.1562 26.5313 17.7917 27.5 15 27.5C12.2083 27.5 9.84375 26.5313 7.90625 24.5938C5.96875 22.6563 5 20.2917 5 17.5C5 14.8125 5.90104 12.2604 7.70313 9.84375C9.50521 7.42708 11.9375 5.39583 15 3.75Z" fill="#1C1B1F"/>
</g>
</g>
</svg>
