<svg width="70" height="70" viewBox="0 0 70 70" fill="none" xmlns="http://www.w3.org/2000/svg">
<rect width="70" height="70" rx="10" fill="#79BFF4"/>
<path d="M19.8574 12V28H16.4746V12H19.8574ZM25.9063 21.0625V28H22.5781V16H25.75V18.1172H25.8906C26.1563 17.4193 26.6016 16.8672 27.2266 16.4609C27.8516 16.0495 28.6094 15.8438 29.5 15.8438C30.3333 15.8438 31.0599 16.026 31.6797 16.3906C32.2995 16.7552 32.7813 17.276 33.125 17.9531C33.4688 18.625 33.6406 19.4271 33.6406 20.3594V28H30.3125V20.9531C30.3177 20.2187 30.1302 19.6458 29.75 19.2344C29.3698 18.8177 28.8464 18.6094 28.1797 18.6094C27.7318 18.6094 27.3359 18.7057 26.9922 18.8984C26.6536 19.0911 26.388 19.3724 26.1953 19.7422C26.0078 20.1068 25.9115 20.5469 25.9063 21.0625ZM40.6855 28.1953C39.7741 28.1953 38.9486 27.9609 38.209 27.4922C37.4746 27.0182 36.8913 26.3229 36.459 25.4062C36.0319 24.4844 35.8184 23.3542 35.8184 22.0156C35.8184 20.6406 36.0397 19.4974 36.4824 18.5859C36.9251 17.6693 37.5137 16.9844 38.248 16.5313C38.9876 16.0729 39.7975 15.8438 40.6777 15.8438C41.3496 15.8438 41.9095 15.9583 42.3574 16.1875C42.8105 16.4115 43.1751 16.6927 43.4512 17.0312C43.7324 17.3646 43.946 17.6927 44.0918 18.0156H44.1934V12H47.5137V28H44.2324V26.0781H44.0918C43.9355 26.4115 43.7142 26.7422 43.4277 27.0703C43.1465 27.3932 42.7793 27.6615 42.3262 27.875C41.8783 28.0885 41.3314 28.1953 40.6855 28.1953ZM41.7402 25.5469C42.2767 25.5469 42.7298 25.401 43.0996 25.1094C43.4746 24.8125 43.7611 24.3984 43.959 23.8672C44.1621 23.3359 44.2637 22.7135 44.2637 22C44.2637 21.2865 44.1647 20.6667 43.9668 20.1406C43.7689 19.6146 43.4824 19.2083 43.1074 18.9219C42.7324 18.6354 42.2767 18.4922 41.7402 18.4922C41.1934 18.4922 40.7324 18.6406 40.3574 18.9375C39.9824 19.2344 39.6986 19.6458 39.5059 20.1719C39.3132 20.6979 39.2168 21.3073 39.2168 22C39.2168 22.6979 39.3132 23.3151 39.5059 23.8516C39.7038 24.3828 39.9876 24.7995 40.3574 25.1016C40.7324 25.3984 41.1934 25.5469 41.7402 25.5469ZM50.25 28V16H53.5781V28H50.25ZM51.9219 14.4531C51.4271 14.4531 51.0026 14.2891 50.6484 13.9609C50.2995 13.6276 50.125 13.2292 50.125 12.7656C50.125 12.3073 50.2995 11.9141 50.6484 11.5859C51.0026 11.2526 51.4271 11.0859 51.9219 11.0859C52.4167 11.0859 52.8385 11.2526 53.1875 11.5859C53.5417 11.9141 53.7188 12.3073 53.7188 12.7656C53.7188 13.2292 53.5417 13.6276 53.1875 13.9609C52.8385 14.2891 52.4167 14.4531 51.9219 14.4531ZM11.0068 55V39H21.6006V41.7891H14.3896V45.6016H20.8975V48.3906H14.3896V55H11.0068ZM27.1416 39V55H23.8135V39H27.1416ZM35.2295 55.2344C34.016 55.2344 32.9665 54.9766 32.0811 54.4609C31.2008 53.9401 30.5212 53.2161 30.042 52.2891C29.5628 51.3568 29.3232 50.276 29.3232 49.0469C29.3232 47.8073 29.5628 46.724 30.042 45.7969C30.5212 44.8646 31.2008 44.1406 32.0811 43.625C32.9665 43.1042 34.016 42.8438 35.2295 42.8438C36.443 42.8438 37.4899 43.1042 38.3701 43.625C39.2555 44.1406 39.9378 44.8646 40.417 45.7969C40.8962 46.724 41.1357 47.8073 41.1357 49.0469C41.1357 50.276 40.8962 51.3568 40.417 52.2891C39.9378 53.2161 39.2555 53.9401 38.3701 54.4609C37.4899 54.9766 36.443 55.2344 35.2295 55.2344ZM35.2451 52.6562C35.7972 52.6562 36.2581 52.5 36.6279 52.1875C36.9977 51.8698 37.2764 51.4375 37.4639 50.8906C37.6566 50.3437 37.7529 49.7214 37.7529 49.0234C37.7529 48.3255 37.6566 47.7031 37.4639 47.1562C37.2764 46.6094 36.9977 46.1771 36.6279 45.8594C36.2581 45.5417 35.7972 45.3828 35.2451 45.3828C34.6878 45.3828 34.2191 45.5417 33.8389 45.8594C33.4639 46.1771 33.18 46.6094 32.9873 47.1562C32.7998 47.7031 32.7061 48.3255 32.7061 49.0234C32.7061 49.7214 32.7998 50.3437 32.9873 50.8906C33.18 51.4375 33.4639 51.8698 33.8389 52.1875C34.2191 52.5 34.6878 52.6562 35.2451 52.6562ZM45.3662 55L42.1006 43H45.4678L47.3271 51.0625H47.4365L49.374 43H52.6787L54.6475 51.0156H54.749L56.5771 43H59.9365L56.6787 55H53.1553L51.0928 47.4531H50.9443L48.8818 55H45.3662Z" fill="white"/>
</svg>
